<?xml version="1.0" standalone="no"?>
<!DOCTYPE svg PUBLIC "-//W3C//DTD SVG 20010904//EN"
 "http://www.w3.org/TR/2001/REC-SVG-20010904/DTD/svg10.dtd">
<svg version="1.0" xmlns="http://www.w3.org/2000/svg"
 width="392.000000pt" height="392.000000pt" viewBox="0 0 392.000000 392.000000"
 preserveAspectRatio="xMidYMid meet">

<g transform="translate(0.000000,392.000000) scale(0.100000,-0.100000)"
fill="#000000" stroke="none">
<path d="M1833 3690 c-52 -23 -56 -32 -8 -19 19 6 41 7 48 3 6 -4 9 -4 5 1 -4
4 0 14 10 21 26 20 -4 17 -55 -6z"/>
<path d="M2100 3688 c0 -5 10 -12 22 -17 20 -7 19 -9 -12 -20 -25 -8 -31 -14
-23 -22 15 -15 63 -3 63 16 0 8 5 15 10 15 23 0 8 16 -25 26 -19 6 -35 7 -35
2z"/>
<path d="M2013 3675 c-8 -22 6 -33 17 -15 13 20 12 30 0 30 -6 0 -13 -7 -17
-15z"/>
<path d="M2215 3681 c-3 -5 -1 -12 5 -16 5 -3 10 1 10 9 0 18 -6 21 -15 7z"/>
<path d="M1919 3654 c-9 -8 -22 -16 -30 -18 -43 -7 -60 -18 -54 -36 4 -12 -2
-24 -17 -34 -34 -24 -42 -20 -57 28 -13 44 -26 56 -62 56 -13 0 -19 -7 -19
-21 0 -18 -2 -19 -15 -9 -12 10 -19 10 -28 1 -8 -8 -7 -19 8 -44 16 -27 16
-30 2 -18 -14 11 -20 11 -34 0 -12 -10 -17 -11 -20 -2 -7 21 -33 2 -68 -51
-19 -28 -68 -89 -110 -134 -81 -87 -89 -103 -101 -209 -4 -44 -19 -94 -41
-142 -38 -83 -56 -181 -32 -181 8 0 38 14 68 30 65 36 80 30 31 -11 -50 -42
-94 -64 -184 -89 -165 -46 -208 -81 -247 -202 -28 -89 -23 -200 17 -315 45
-129 112 -217 238 -311 129 -97 322 -173 444 -175 34 0 62 -2 62 -5 0 -9 -24
-49 -42 -69 -20 -21 -20 -21 1 -32 27 -15 107 -7 129 12 12 11 22 13 32 7 8
-5 32 -10 53 -10 34 0 37 2 27 19 -7 13 -7 22 0 26 6 3 -1 18 -15 33 -47 50 3
37 177 -47 91 -45 195 -88 230 -96 74 -17 103 -18 68 -2 -176 79 -238 120
-268 178 -7 14 -29 34 -48 44 -27 14 -37 28 -46 62 -6 24 -14 46 -19 49 -12 7
-11 54 1 54 12 0 14 36 3 43 -5 2 -2 2 6 0 18 -4 7 73 -14 93 -7 8 -21 39 -30
69 -9 34 -24 61 -38 70 -24 15 -41 54 -52 118 -5 29 0 53 16 93 13 30 26 54
31 54 4 0 8 12 8 28 1 25 1 26 15 8 13 -18 14 -17 20 5 8 29 51 63 67 53 7 -5
5 -11 -7 -20 -21 -16 -16 -27 8 -18 9 3 19 19 22 35 4 16 11 29 17 29 24 0 35
29 36 94 1 45 6 72 14 78 10 6 10 8 1 8 -21 0 -15 27 7 33 24 6 29 57 6 57 -8
0 -18 5 -21 10 -5 7 8 9 39 6 24 -3 47 -2 51 3 3 5 31 13 63 16 31 4 92 18
135 32 70 22 85 24 140 15 34 -6 95 -21 135 -33 64 -21 77 -22 115 -10 57 17
72 16 107 -9 63 -45 86 -140 74 -300 l-7 -88 -61 -13 c-33 -7 -69 -12 -80 -10
-58 9 -119 -56 -120 -131 -1 -26 -4 -48 -8 -48 -5 0 -8 -7 -8 -15 0 -12 4 -13
18 -4 10 6 17 23 17 37 0 19 6 27 27 33 15 4 29 4 32 1 12 -11 6 -61 -9 -76
-14 -13 -13 -16 7 -30 36 -26 67 -19 105 22 l35 37 -5 -165 c-3 -91 -11 -182
-17 -203 -13 -45 -7 -57 17 -35 10 9 48 37 86 62 133 91 210 168 299 303 106
159 174 324 197 480 14 90 14 273 1 344 -28 152 -140 280 -321 370 -83 41
-200 49 -349 24 -68 -12 -143 -17 -215 -16 -351 9 -471 2 -610 -34 -55 -14
-104 -30 -109 -36 -6 -5 -16 -9 -24 -9 -13 0 -100 -41 -151 -71 -23 -13 -68
-49 -97 -76 -7 -7 -16 -13 -20 -13 -4 0 -13 -8 -20 -17 -7 -10 -13 -13 -13 -8
0 14 78 97 116 124 18 12 30 28 27 35 -3 9 6 18 26 24 18 7 28 7 25 2 -10 -16
12 -11 30 6 9 9 37 22 62 30 26 8 58 21 71 30 17 11 27 13 31 5 5 -8 25 -5 67
9 32 11 73 20 91 20 17 0 44 5 60 11 15 6 57 13 93 14 82 3 80 3 80 15 0 20
-44 29 -68 14 -14 -9 -43 -14 -77 -13 -30 1 -60 -3 -67 -9 -8 -6 -34 -15 -58
-21 -34 -8 -48 -7 -64 5 -11 8 -33 14 -47 14 -15 0 -35 3 -45 7 -14 5 -11 9
17 18 40 14 69 9 69 -12 0 -12 6 -13 28 -8 15 4 43 11 62 14 21 4 30 9 23 14
-7 4 -10 14 -7 21 3 8 1 17 -4 20 -6 3 -12 0 -15 -8 -4 -9 -21 -12 -56 -11
-56 2 -74 11 -51 25 8 6 10 10 5 10 -6 0 -18 -7 -26 -16z m-179 -34 c0 -5 -2
-10 -4 -10 -3 0 -8 5 -11 10 -3 6 -1 10 4 10 6 0 11 -4 11 -10z m-20 -64 c0
-20 0 -20 -21 1 -15 14 -19 27 -15 40 7 17 8 17 22 -1 8 -11 14 -29 14 -40z
m730 -30 c0 -3 -4 -8 -10 -11 -5 -3 -10 -1 -10 4 0 6 5 11 10 11 6 0 10 -2 10
-4z m-625 -16 c-27 -12 -43 -12 -25 0 8 5 22 9 30 9 10 0 8 -3 -5 -9z m-185
-104 c0 -2 -7 -7 -16 -10 -8 -3 -12 -2 -9 4 6 10 25 14 25 6z m375 -716 c3 -5
1 -10 -4 -10 -6 0 -11 5 -11 10 0 6 2 10 4 10 3 0 8 -4 11 -10z m-145 -130 c0
-5 -5 -10 -11 -10 -5 0 -7 5 -4 10 3 6 8 10 11 10 2 0 4 -4 4 -10z m-300 -80
c8 -5 12 -12 9 -15 -8 -8 -39 5 -39 16 0 11 11 11 30 -1z m1330 0 c0 -5 -7
-10 -15 -10 -8 0 -15 5 -15 10 0 6 7 10 15 10 8 0 15 -4 15 -10z m-160 -27
c-8 -4 -21 -12 -28 -20 -13 -12 -42 -18 -42 -8 0 8 54 34 70 34 13 -1 13 -1 0
-6z m-1200 -19 c0 -2 -7 -4 -15 -4 -8 0 -15 4 -15 10 0 5 7 7 15 4 8 -4 15 -8
15 -10z m-10 -53 c0 -6 -4 -12 -9 -15 -4 -3 -16 -33 -26 -68 -17 -62 -17 -62
5 -80 12 -10 29 -18 37 -18 8 0 13 -5 11 -12 -8 -23 -26 -19 -58 13 -28 28
-31 37 -25 68 10 59 37 121 51 121 8 0 14 -4 14 -9z m50 -90 c0 -5 14 -14 30
-20 43 -14 40 -41 -5 -41 -37 0 -56 20 -48 51 5 19 23 27 23 10z m103 -108 c4
-2 5 -13 2 -24 -5 -14 -2 -19 14 -19 29 0 36 -18 15 -41 -13 -14 -29 -19 -58
-18 -74 4 -91 28 -66 94 9 25 14 27 48 20 20 -4 40 -9 45 -12z m39 -355 c-7
-7 -12 -8 -12 -2 0 6 3 14 7 17 3 4 9 5 12 2 2 -3 -1 -11 -7 -17z"/>
<path d="M2180 3655 c0 -8 7 -15 16 -15 14 0 14 3 4 15 -7 8 -14 15 -16 15 -2
0 -4 -7 -4 -15z"/>
<path d="M2248 3643 c7 -3 16 -2 19 1 4 3 -2 6 -13 5 -11 0 -14 -3 -6 -6z"/>
<path d="M1790 3590 c0 -5 5 -10 10 -10 6 0 10 5 10 10 0 6 -4 10 -10 10 -5 0
-10 -4 -10 -10z"/>
<path d="M2320 3590 c0 -5 17 -10 38 -10 27 0 33 3 22 10 -20 13 -60 13 -60 0z"/>
<path d="M2418 3583 c7 -3 16 -2 19 1 4 3 -2 6 -13 5 -11 0 -14 -3 -6 -6z"/>
<path d="M2097 2561 c-21 -3 -38 -9 -37 -13 0 -5 0 -15 0 -24 0 -13 6 -15 33
-9 17 4 41 8 53 9 11 2 26 6 32 10 7 4 29 5 50 1 43 -7 95 -33 72 -36 -28 -4
-35 -5 -95 -23 -112 -34 -132 -55 -77 -79 15 -6 30 -17 34 -23 5 -7 18 -10 30
-6 14 3 19 1 14 -6 -13 -22 44 -52 99 -52 52 0 54 1 90 50 20 28 41 50 45 50
5 0 12 16 16 35 3 19 9 34 13 33 11 -3 51 13 51 21 0 12 -23 36 -52 54 -23 14
-53 17 -180 16 -84 -1 -170 -5 -191 -8z m188 -131 c3 -5 -1 -10 -9 -10 -11 0
-16 -10 -16 -30 0 -37 -25 -50 -45 -24 -19 25 -15 34 21 55 35 21 41 22 49 9z"/>
<path d="M2495 2090 c-3 -5 -15 -10 -26 -10 -10 0 -19 -4 -19 -10 0 -17 47
-22 72 -9 12 7 29 12 36 11 22 -5 13 15 -10 22 -33 8 -46 7 -53 -4z"/>
<path d="M2606 2082 c-7 -6 23 -42 36 -42 4 0 8 8 8 19 0 18 -33 35 -44 23z"/>
<path d="M2529 1970 c-33 -10 -157 -57 -186 -72 -27 -13 -21 -28 13 -28 17 0
27 -8 34 -24 9 -25 60 -56 91 -56 10 0 23 -8 28 -17 10 -17 10 -17 11 0 0 9 6
17 14 17 7 0 21 10 29 23 14 20 16 20 16 3 1 -11 6 -16 15 -13 8 3 17 -1 20
-9 8 -20 23 -17 29 6 3 12 14 20 25 20 13 0 24 10 31 30 5 17 17 30 25 30 25
0 19 17 -19 59 -34 37 -39 39 -93 39 -31 0 -69 -4 -83 -8z"/>
<path d="M2494 1705 c-4 -8 -18 -15 -32 -15 -18 0 -23 -3 -15 -11 16 -16 63 0
63 22 0 23 -8 25 -16 4z"/>
<path d="M1466 1615 c-110 -75 -128 -98 -69 -91 45 6 88 -13 161 -68 67 -51
205 -212 268 -311 26 -41 51 -75 56 -75 4 0 8 -5 8 -12 0 -6 27 -53 60 -105
33 -51 60 -97 60 -101 0 -5 13 -34 29 -64 37 -73 42 -103 25 -144 -9 -21 -13
-55 -10 -87 7 -85 -23 -292 -64 -432 -11 -38 -23 -82 -26 -97 l-6 -28 566 0
566 0 0 73 c0 92 -9 147 -25 147 -8 0 -12 17 -12 48 0 26 -4 115 -8 199 -7
144 -7 155 14 204 l22 51 -22 24 c-13 14 -36 28 -53 32 -29 8 -31 12 -42 83
-12 74 -24 117 -49 174 -7 17 -25 59 -40 95 -15 36 -54 118 -88 183 -48 94
-71 128 -114 165 -67 58 -132 102 -151 102 -9 0 -23 7 -32 15 -8 8 -25 12 -37
9 -18 -5 -20 -10 -11 -46 6 -30 22 -52 59 -86 28 -25 64 -68 80 -96 17 -28 27
-40 24 -26 -15 52 -37 88 -85 135 -57 56 -64 79 -22 69 30 -8 112 -70 112 -86
0 -6 14 -26 30 -45 17 -19 46 -65 65 -103 19 -38 41 -72 48 -77 15 -10 57
-116 61 -156 1 -16 8 -32 15 -36 7 -5 12 -12 12 -17 -1 -14 30 -105 47 -139
18 -35 25 -81 17 -112 -4 -16 -16 -24 -43 -30 -20 -4 -41 -6 -46 -5 -4 2 -14
-2 -21 -8 -10 -8 -15 -8 -20 0 -4 7 -11 7 -18 2 -7 -5 -91 -8 -187 -7 -281 3
-251 -3 -292 58 -41 61 -69 110 -151 267 -96 184 -195 324 -312 446 -121 124
-261 169 -349 109z m814 -935 c29 -29 25 -66 -9 -101 -16 -16 -34 -29 -39 -29
-17 0 -62 60 -62 83 0 28 38 67 67 67 13 0 32 -9 43 -20z m730 -5 c0 -32 -16
-40 -29 -16 -16 28 -14 37 9 38 15 1 20 -4 20 -22z m-766 -172 c-5 -17 -3 -24
3 -20 15 9 26 -24 13 -37 -5 -5 -12 -8 -14 -5 -8 8 -24 88 -18 93 12 12 22 -7
16 -31z m210 -309 c29 -11 17 -21 -21 -18 -50 3 -50 3 -33 14 17 11 32 12 54
4z"/>
<path d="M2370 1590 c0 -5 12 -10 26 -10 14 0 23 4 19 10 -3 6 -15 10 -26 10
-10 0 -19 -4 -19 -10z"/>
<path d="M650 549 c-14 -25 -14 -25 33 -33 45 -8 48 5 8 34 l-30 21 -11 -22z"/>
<path d="M615 450 c3 -5 10 -10 16 -10 5 0 9 5 9 10 0 6 -7 10 -16 10 -8 0
-12 -4 -9 -10z"/>
<path d="M588 383 c7 -3 16 -2 19 1 4 3 -2 6 -13 5 -11 0 -14 -3 -6 -6z"/>
<path d="M651 189 c-41 -12 -106 -53 -136 -85 -13 -14 -29 -21 -41 -18 -15 4
-24 -5 -41 -41 l-22 -45 122 0 c67 0 118 4 112 8 -18 13 -14 49 8 69 52 48
148 34 224 -32 71 -62 88 -60 59 9 -19 46 -73 104 -117 127 -41 21 -111 24
-168 8z"/>
</g>
</svg>
